<?xml version="1.0" encoding="utf-8"?>
<!-- Generator: Adobe Illustrator 25.2.3, SVG Export Plug-In . SVG Version: 6.00 Build 0)  -->
<svg version="1.1" id="Layer_1" xmlns="http://www.w3.org/2000/svg" xmlns:xlink="http://www.w3.org/1999/xlink" x="0px" y="0px"
	 width="1024px" height="1024px" viewBox="0 0 1024 1024" style="enable-background:new 0 0 1024 1024;" xml:space="preserve">
<style type="text/css">
	.st0{fill:#E40B3E;}
</style>
<g>
	<path class="st0" d="M128.5,383.1c6.2-211.8,183-378.4,394.8-372.2c203,6,366.2,169.2,372.2,372.2
		C887.4,594.9,709.2,760,497.4,751.9C296.9,744.3,136.2,583.5,128.5,383.1 M347.1,383.1c0,91.1,73.8,164.9,164.9,164.9
		c91.1,0,164.9-73.8,164.9-164.9S603.1,218.1,512,218.1C420.9,218.1,347.1,292,347.1,383.1"/>
	<path class="st0" d="M755,1013.3H263.4c-53.9-1.8-96.1-47-94.3-100.9c1.7-51.3,43-92.6,94.3-94.3H755c53.9,1.8,96.1,47,94.3,100.9
		C847.6,970.3,806.4,1011.5,755,1013.3"/>
</g>
</svg>
