<svg xmlns="http://www.w3.org/2000/svg" xmlns:xlink="http://www.w3.org/1999/xlink" width="200.433" height="18.462" viewBox="0 0 200.433 18.462"><defs><style>.a{fill:none;}.b{clip-path:url(#a);}.c{fill:#142b4d;}.d{fill:#e40b3e;}</style><clipPath id="a"><rect class="a" width="200.433" height="18.462" transform="translate(0 0)"/></clipPath></defs><g transform="translate(0 0)"><g class="b" transform="translate(0 0)"><path class="c" d="M9.368,0a9.307,9.307,0,0,1,6.7,2.523l-2.024,3.3A7.5,7.5,0,0,0,9.568,4a4.827,4.827,0,0,0-5.047,5.1,5.081,5.081,0,0,0,5.047,5.371,7.324,7.324,0,0,0,4.747-2.2l2.248,3.2a9.8,9.8,0,0,1-7.2,3A8.96,8.96,0,0,1,0,9.194,9.088,9.088,0,0,1,9.368,0" transform="translate(0 0)"/><path class="c" d="M60.818,1H65.19V8.328h6.5V1h4.372V18.858H71.685V12.05h-6.5v6.808H60.818Z" transform="translate(-42.489 -0.695)"/><rect class="c" width="4.372" height="17.862" transform="translate(53.308 0.3)"/><path class="c" d="M275.681,1H281.9a9.246,9.246,0,0,1,3.473.425,5.193,5.193,0,0,1,3.3,5.2A5.437,5.437,0,0,1,286,11.488v.05a10.232,10.232,0,0,1,.674,1.075l3.473,6.245h-4.872L282.1,12.837h-2.048v6.021h-4.372Zm6.271,8.094a2.045,2.045,0,0,0,2.274-2.2c0-1.349-.5-2.149-2.7-2.149h-1.474V9.089Z" transform="translate(-192.596 -0.695)"/><path class="c" d="M330.563,1h11.192V4.743h-6.82V7.991h5.446v3.747h-5.446v3.373h7.17v3.747H330.563Z" transform="translate(-230.938 -0.695)"/><path class="c" d="M435.848,0a9.308,9.308,0,0,1,6.7,2.523l-2.024,3.3A7.5,7.5,0,0,0,436.049,4,4.827,4.827,0,0,0,431,9.094a5.081,5.081,0,0,0,5.047,5.371,7.323,7.323,0,0,0,4.746-2.2l2.249,3.2a9.8,9.8,0,0,1-7.2,3,8.96,8.96,0,0,1-9.368-9.269A9.088,9.088,0,0,1,435.848,0" transform="translate(-297.948 0)"/><path class="c" d="M489.908,4.742h-5.421V1H499.7V4.742H494.28V18.858h-4.372Z" transform="translate(-338.472 -0.695)"/><rect class="c" width="4.372" height="17.862" transform="translate(163.312 0.3)"/><path class="d" d="M563.493,7.291a6.879,6.879,0,0,1,13.752,0,6.881,6.881,0,0,1-13.752,0m3.919,0a2.957,2.957,0,0,0,5.914,0,2.957,2.957,0,1,0-5.914,0" transform="translate(-393.668 -0.429)"/><path class="d" d="M576.272,52.147h-8.816a1.751,1.751,0,0,1,0-3.5h8.816a1.751,1.751,0,0,1,0,3.5" transform="translate(-395.213 -33.985)"/><path class="c" d="M201.109,1h4.422l4.946,8.344a31.907,31.907,0,0,1,1.5,3.048h.05s-.2-1.923-.2-3.048V1H216.2V18.857h-4.4l-4.972-8.319a31.939,31.939,0,0,1-1.5-3.048h-.05s.2,1.924.2,3.048v8.319h-4.372Z" transform="translate(-140.499 -0.695)"/><path class="c" d="M127.505,15.11h-5.571l-1.074,3.747h-4.5L122.434,1h4.6L133.1,18.857h-4.5Zm-2.8-10.043s-.4,1.949-.725,3.073l-1.024,3.472h3.522l-1-3.472c-.325-1.124-.724-3.073-.724-3.073Z" transform="translate(-81.294 -0.695)"/><path class="c" d="M385.328,15.11h-5.571l-1.074,3.747h-4.5L380.257,1h4.6l6.071,17.862h-4.5Zm-2.8-10.043s-.4,1.949-.724,3.073l-1.024,3.472H384.3l-1-3.472c-.325-1.124-.724-3.073-.724-3.073Z" transform="translate(-261.414 -0.695)"/><path class="c" d="M614.983,1h4.422l4.946,8.344a31.932,31.932,0,0,1,1.5,3.048h.05s-.2-1.924-.2-3.048V1h4.372V18.857h-4.4L620.7,10.538a31.979,31.979,0,0,1-1.5-3.048h-.05s.2,1.924.2,3.048v8.319h-4.372Z" transform="translate(-429.64 -0.695)"/></g></g></svg>